<svg width="1904" height="567" viewBox="0 0 1904 567" fill="none" xmlns="http://www.w3.org/2000/svg">
<g filter="url(#filter0_d_23575_5)">
<path fill-rule="evenodd" clip-rule="evenodd" d="M2149 108L2039.54 138C1930.08 168 1711.17 228 1492.25 252C1273.33 276 1054.42 264 835.5 234C616.583 204 397.667 156 178.75 114C-40.1667 72 -259.083 36 -368.542 18L-478 0V288H-368.542C-259.083 288 -40.1667 288 178.75 288C397.667 288 616.583 288 835.5 288C1054.42 288 1273.33 288 1492.25 288C1711.17 288 1930.08 288 2039.54 288H2149V108Z" fill="#FFF7E1"/>
<path fill-rule="evenodd" clip-rule="evenodd" d="M-478 451L-368.542 421C-259.083 391 -40.1667 331 178.75 307C397.667 283 616.583 295 835.5 325C1054.42 355 1273.33 403 1492.25 445C1711.17 487 1930.08 523 2039.54 541L2149 559V271H2039.54C1930.08 271 1711.17 271 1492.25 271C1273.33 271 1054.42 271 835.5 271C616.583 271 397.667 271 178.75 271C-40.1667 271 -259.083 271 -368.542 271H-478V451Z" fill="#FFF7E1"/>
</g>
<defs>
<filter id="filter0_d_23575_5" x="-482" y="0" width="2635" height="567" filterUnits="userSpaceOnUse" color-interpolation-filters="sRGB">
<feFlood flood-opacity="0" result="BackgroundImageFix"/>
<feColorMatrix in="SourceAlpha" type="matrix" values="0 0 0 0 0 0 0 0 0 0 0 0 0 0 0 0 0 0 127 0" result="hardAlpha"/>
<feOffset dy="4"/>
<feGaussianBlur stdDeviation="2"/>
<feComposite in2="hardAlpha" operator="out"/>
<feColorMatrix type="matrix" values="0 0 0 0 0 0 0 0 0 0 0 0 0 0 0 0 0 0 0.25 0"/>
<feBlend mode="normal" in2="BackgroundImageFix" result="effect1_dropShadow_23575_5"/>
<feBlend mode="normal" in="SourceGraphic" in2="effect1_dropShadow_23575_5" result="shape"/>
</filter>
</defs>
</svg>
