<svg width="1904" height="289" viewBox="0 0 1904 289" fill="none" xmlns="http://www.w3.org/2000/svg">
<path fill-rule="evenodd" clip-rule="evenodd" d="M0 180.018L79.3333 150.018C158.667 120.018 317.333 60.0184 476 36.0184C634.667 12.0184 793.333 24.0184 952 54.0184C1110.67 84.0184 1269.33 132.018 1428 174.018C1586.67 216.018 1745.33 252.018 1824.67 270.018L1904 288.018V0.0183716H1824.67C1745.33 0.0183716 1586.67 0.0183716 1428 0.0183716C1269.33 0.0183716 1110.67 0.0183716 952 0.0183716C793.333 0.0183716 634.667 0.0183716 476 0.0183716C317.333 0.0183716 158.667 0.0183716 79.3333 0.0183716H0V180.018Z" fill="#FFF7E1"/>
</svg>
