<svg width="1904" height="1170" viewBox="0 0 1904 1170" fill="none" xmlns="http://www.w3.org/2000/svg">
<path fill-rule="evenodd" clip-rule="evenodd" d="M0 1062L79.375 1032C158.75 1002 317.5 942 476.25 918C635 894 793.75 906 952.5 936C1111.25 966 1270 1014 1428.75 1056C1587.5 1098 1746.25 1134 1825.63 1152L1905 1170V882H1825.63C1746.25 882 1587.5 882 1428.75 882C1270 882 1111.25 882 952.5 882C793.75 882 635 882 476.25 882C317.5 882 158.75 882 79.375 882H0V1062Z" fill="#FFF7E1"/>
<rect x="1905" y="-8.99988" width="900" height="1905" transform="rotate(90 1905 -8.99988)" fill="#FFF7E1"/>
</svg>
