<svg width="1904" height="720" viewBox="0 0 1904 720" fill="none" xmlns="http://www.w3.org/2000/svg">
<rect y="288" width="1905" height="146" fill="#F5F5F5"/>
<path fill-rule="evenodd" clip-rule="evenodd" d="M2150 108L2040.54 138C1931.08 168 1712.17 228 1493.25 252C1274.33 276 1055.42 264 836.5 234C617.583 204 398.667 156 179.75 114C-39.1667 72 -258.083 36 -367.542 18L-477 0V288H-367.542C-258.083 288 -39.1667 288 179.75 288C398.667 288 617.583 288 836.5 288C1055.42 288 1274.33 288 1493.25 288C1712.17 288 1931.08 288 2040.54 288H2150V108Z" fill="#F5F5F5"/>
<path fill-rule="evenodd" clip-rule="evenodd" d="M-477 612L-367.542 582C-258.083 552 -39.1667 492 179.75 468C398.667 444 617.583 456 836.5 486C1055.42 516 1274.33 564 1493.25 606C1712.17 648 1931.08 684 2040.54 702L2150 720V432H2040.54C1931.08 432 1712.17 432 1493.25 432C1274.33 432 1055.42 432 836.5 432C617.583 432 398.667 432 179.75 432C-39.1667 432 -258.083 432 -367.542 432H-477V612Z" fill="#F5F5F5"/>
</svg>
