<svg width="1904" height="933" viewBox="0 0 1904 933" fill="none" xmlns="http://www.w3.org/2000/svg">
<rect width="1904" height="663" fill="#F9B300"/>
<path fill-rule="evenodd" clip-rule="evenodd" d="M-477 825L-367.542 795C-258.083 765 -39.1667 705 179.75 681C398.667 657 617.583 669 836.5 699C1055.42 729 1274.33 777 1493.25 819C1712.17 861 1931.08 897 2040.54 915L2150 933V645H2040.54C1931.08 645 1712.17 645 1493.25 645C1274.33 645 1055.42 645 836.5 645C617.583 645 398.667 645 179.75 645C-39.1667 645 -258.083 645 -367.542 645H-477V825Z" fill="#F9B300"/>
</svg>
