<svg width="1904" height="1368" viewBox="0 0 1904 1368" fill="none" xmlns="http://www.w3.org/2000/svg">
<rect y="435" width="1904" height="663" fill="#F9B300"/>
<path fill-rule="evenodd" clip-rule="evenodd" d="M-477 1260L-367.542 1230C-258.083 1200 -39.1667 1140 179.75 1116C398.667 1092 617.583 1104 836.5 1134C1055.42 1164 1274.33 1212 1493.25 1254C1712.17 1296 1931.08 1332 2040.54 1350L2150 1368V1080H2040.54C1931.08 1080 1712.17 1080 1493.25 1080C1274.33 1080 1055.42 1080 836.5 1080C617.583 1080 398.667 1080 179.75 1080C-39.1667 1080 -258.083 1080 -367.542 1080H-477V1260Z" fill="#F9B300"/>
<rect width="1921" height="435" fill="#FFF7E1"/>
</svg>
