<svg width="1904" height="310" viewBox="0 0 1904 310" fill="none" xmlns="http://www.w3.org/2000/svg">
<path fill-rule="evenodd" clip-rule="evenodd" d="M-477 201.614L-367.542 171.614C-258.083 141.614 -39.1667 81.6143 179.75 57.6143C398.667 33.6143 617.583 45.6143 836.5 75.6143C1055.42 105.614 1274.33 153.614 1493.25 195.614C1712.17 237.614 1931.08 273.614 2040.54 291.614L2150 309.614V21.6143H2040.54C1931.08 21.6143 1712.17 21.6143 1493.25 21.6143C1274.33 21.6143 1055.42 21.6143 836.5 21.6143C617.583 21.6143 398.667 21.6143 179.75 21.6143C-39.1667 21.6143 -258.083 21.6143 -367.542 21.6143H-477V201.614Z" fill="#F9B300"/>

</svg>
